<?xml version="1.0" encoding="UTF-8"?>
<svg width="64px" height="64px" viewBox="0 0 64 64" version="1.1" xmlns="http://www.w3.org/2000/svg" xmlns:xlink="http://www.w3.org/1999/xlink">
    <!-- Generator: Sketch 50 (54983) - http://www.bohemiancoding.com/sketch -->
    <title>icon/读公告</title>
    <desc>Created with Sketch.</desc>
    <defs>
        <linearGradient x1="86.1649204%" y1="8.66546044%" x2="12.8483435%" y2="100%" id="linearGradient-1">
            <stop stop-color="#FF987B" offset="0%"></stop>
            <stop stop-color="#FB3F5B" offset="37.4491641%"></stop>
            <stop stop-color="#F52566" offset="100%"></stop>
        </linearGradient>
        <circle id="path-2" cx="32" cy="32" r="30"></circle>
        <path d="M21.3759037,7.30070621 L14.3174298,0.0828090309 C14.2649053,0.0290938873 14.1934506,-0.000746125111 14.1191698,1.41810442e-05 C14.0448949,-0.000714088692 13.9734519,0.0291210539 13.9209097,0.0828090309 L6.86243583,7.30070621 C6.75418806,7.41143011 6.75418806,7.5909136 6.86243583,7.70163751 L7.45069977,8.30317618 C7.55898021,8.41386665 7.73450283,8.41386665 7.84278328,8.30317618 L14.1191698,1.88515674 L20.3955563,8.30317618 C20.5038367,8.41386665 20.6793593,8.41386665 20.7876398,8.30317618 L21.3759037,7.70163751 C21.4841515,7.5909136 21.4841515,7.41143011 21.3759037,7.30070621 Z" id="path-4"></path>
        <filter x="-20.4%" y="-35.8%" width="140.9%" height="171.5%" filterUnits="objectBoundingBox" id="filter-5">
            <feOffset dx="0" dy="0" in="SourceAlpha" result="shadowOffsetOuter1"></feOffset>
            <feGaussianBlur stdDeviation="1" in="shadowOffsetOuter1" result="shadowBlurOuter1"></feGaussianBlur>
            <feColorMatrix values="0 0 0 0 0   0 0 0 0 0   0 0 0 0 0  0 0 0 0.09 0" type="matrix" in="shadowBlurOuter1"></feColorMatrix>
        </filter>
        <rect id="path-6" x="0" y="0" width="28.09375" height="19.375" rx="2"></rect>
        <path d="M17.98,1.11815919 C17.98,1.19229777 17.9504013,1.26339982 17.8977153,1.31582371 C17.8450293,1.36824759 17.7735718,1.39769902 17.6990625,1.39769902 L0.280937522,1.39769902 C0.206428256,1.39769902 0.134970693,1.36824759 0.0822846854,1.31582371 C0.0295986781,1.26339982 -8.73155758e-09,1.19229777 -1.77635684e-15,1.11815919 L-1.77635684e-15,0.27953979 C-1.77635684e-15,0.205401223 0.0295986907,0.134299178 0.082284697,0.0818752973 C0.134970703,0.0294514165 0.206428261,-8.68811338e-09 0.280937522,0 L17.6990625,0 C17.7735717,-8.68811338e-09 17.8450293,0.0294514165 17.8977153,0.0818752973 C17.9504013,0.134299178 17.98,0.205401223 17.98,0.27953979 L17.98,1.11815919 Z" id="path-8"></path>
        <filter x="-5.6%" y="-71.5%" width="122.2%" height="386.2%" filterUnits="objectBoundingBox" id="filter-10">
            <feOffset dx="1" dy="1" in="SourceAlpha" result="shadowOffsetOuter1"></feOffset>
            <feGaussianBlur stdDeviation="0.5" in="shadowOffsetOuter1" result="shadowBlurOuter1"></feGaussianBlur>
            <feColorMatrix values="0 0 0 0 0   0 0 0 0 0   0 0 0 0 0  0 0 0 0.0271173007 0" type="matrix" in="shadowBlurOuter1"></feColorMatrix>
        </filter>
        <path d="M14.4682812,1.11815919 C14.4682812,1.27254476 14.3425013,1.39769898 14.1873438,1.39769898 L0.280937522,1.39769898 C0.206428261,1.39769899 0.134970703,1.36824757 0.082284697,1.31582369 C0.0295986907,1.26339981 1.77635684e-15,1.19229776 1.77635684e-15,1.11815919 L1.77635684e-15,0.27953979 C3.64777652e-15,0.205401223 0.0295986907,0.134299178 0.082284697,0.0818752973 C0.134970703,0.0294514165 0.206428261,-8.68811338e-09 0.280937522,0 L14.1873438,0 C14.3425013,0 14.4682812,0.125154227 14.4682812,0.27953979 L14.4682812,1.11815919 Z" id="path-11"></path>
        <filter x="-6.9%" y="-71.5%" width="127.6%" height="386.2%" filterUnits="objectBoundingBox" id="filter-13">
            <feOffset dx="1" dy="1" in="SourceAlpha" result="shadowOffsetOuter1"></feOffset>
            <feGaussianBlur stdDeviation="0.5" in="shadowOffsetOuter1" result="shadowBlurOuter1"></feGaussianBlur>
            <feColorMatrix values="0 0 0 0 0   0 0 0 0 0   0 0 0 0 0  0 0 0 0.0271173007 0" type="matrix" in="shadowBlurOuter1"></feColorMatrix>
        </filter>
        <path d="M3.390625,15.2951648 C3.390625,15.2210262 3.42022369,15.1499242 3.4729097,15.0975003 C3.5255957,15.0450764 3.59705326,15.015625 3.67156252,15.015625 L11.5378125,15.015625 C11.69297,15.015625 11.81875,15.1407792 11.81875,15.2951648 L11.81875,16.1337842 C11.81875,16.2079228 11.7891513,16.2790248 11.7364653,16.3314487 C11.6837793,16.3838726 11.6123218,16.413324 11.5378125,16.413324 L3.67156252,16.413324 C3.59705326,16.413324 3.52559569,16.3838726 3.47290969,16.3314487 C3.42022368,16.2790248 3.39062499,16.2079228 3.390625,16.1337842 L3.390625,15.2951648 Z" id="path-14"></path>
        <filter x="-11.9%" y="-71.5%" width="147.5%" height="386.2%" filterUnits="objectBoundingBox" id="filter-15">
            <feOffset dx="1" dy="1" in="SourceAlpha" result="shadowOffsetOuter1"></feOffset>
            <feGaussianBlur stdDeviation="0.5" in="shadowOffsetOuter1" result="shadowBlurOuter1"></feGaussianBlur>
            <feColorMatrix values="0 0 0 0 0   0 0 0 0 0   0 0 0 0 0  0 0 0 0.0271173007 0" type="matrix" in="shadowBlurOuter1"></feColorMatrix>
        </filter>
        <path d="M3.390625,12.3889148 C3.39062499,12.3147762 3.42022368,12.2436742 3.47290969,12.1912503 C3.52559569,12.1388264 3.59705326,12.109375 3.67156252,12.109375 L15.19,12.109375 C15.2645093,12.109375 15.3359668,12.1388264 15.3886528,12.1912503 C15.4413388,12.2436742 15.4709375,12.3147762 15.4709375,12.3889148 L15.4709375,13.2275342 C15.4709375,13.3016728 15.4413388,13.3727748 15.3886528,13.4251987 C15.3359668,13.4776226 15.2645093,13.507074 15.19,13.507074 L3.67156252,13.507074 C3.59705326,13.507074 3.5255957,13.4776226 3.4729097,13.4251987 C3.42022369,13.3727748 3.390625,13.3016728 3.390625,13.2275342 L3.390625,12.3889148 Z" id="path-16"></path>
        <filter x="-8.3%" y="-71.5%" width="133.1%" height="386.2%" filterUnits="objectBoundingBox" id="filter-17">
            <feOffset dx="1" dy="1" in="SourceAlpha" result="shadowOffsetOuter1"></feOffset>
            <feGaussianBlur stdDeviation="0.5" in="shadowOffsetOuter1" result="shadowBlurOuter1"></feGaussianBlur>
            <feColorMatrix values="0 0 0 0 0   0 0 0 0 0   0 0 0 0 0  0 0 0 0.0271173007 0" type="matrix" in="shadowBlurOuter1"></feColorMatrix>
        </filter>
        <path d="M0,0.279539823 C-8.73155394e-09,0.205401255 0.0295986736,0.134299207 0.0822846737,0.0818753205 C0.134970674,0.0294514335 0.206428228,0 0.280937489,0 L4.2140625,0 C4.28857176,0 4.36002931,0.0294514335 4.41271531,0.0818753205 C4.46540131,0.134299207 4.49499999,0.205401255 4.49499999,0.279539823 L4.49499999,4.75217663 C4.49499999,4.90656219 4.36921999,5.03171642 4.2140625,5.03171642 L0.280937489,5.03171642 C0.125779998,5.03171642 7.48567874e-15,4.90656219 7.48567874e-15,4.75217663 L7.48567874e-15,0.279539823 Z" id="path-18"></path>
    </defs>
    <g id="icon/读公告" stroke="none" stroke-width="1" fill="none" fill-rule="evenodd">
        <mask id="mask-3" fill="white">
            <use xlink:href="#path-2"></use>
        </mask>
        <use id="Mask" fill="url(#linearGradient-1)" xlink:href="#path-2"></use>
        <g id="icon/数据" mask="url(#mask-3)">
            <g transform="translate(17.000000, 14.000000)">
                <g id="Group" transform="translate(0.453125, 0.000000)">
                    <g id="Oval-2" transform="translate(0.207589, 1.660714)"></g>
                </g>
                <g id="Group-29" transform="translate(0.453125, 1.937500)">
                    <g id="Path" opacity="0.400000006">
                        <use fill="black" fill-opacity="1" filter="url(#filter-5)" xlink:href="#path-4"></use>
                        <use fill="#FFFFFF" fill-rule="evenodd" xlink:href="#path-4"></use>
                    </g>
                    <g id="Path-19" transform="translate(0.000000, 7.265625)">
                        <mask id="mask-7" fill="white">
                            <use xlink:href="#path-6"></use>
                        </mask>
                        <use id="Mask" fill="#FFFFFF" xlink:href="#path-6"></use>
                    </g>
                    <g id="Path-21" transform="translate(3.390625, 18.406250)">
                        <mask id="mask-9" fill="white">
                            <use xlink:href="#path-8"></use>
                        </mask>
                        <g id="Mask">
                            <use fill="black" fill-opacity="1" filter="url(#filter-10)" xlink:href="#path-8"></use>
                            <use fill="#FF4F54" fill-rule="evenodd" xlink:href="#path-8"></use>
                        </g>
                    </g>
                    <g id="Path-20" transform="translate(3.390625, 21.312500)">
                        <mask id="mask-12" fill="white">
                            <use xlink:href="#path-11"></use>
                        </mask>
                        <g id="Mask">
                            <use fill="black" fill-opacity="1" filter="url(#filter-13)" xlink:href="#path-11"></use>
                            <use fill="#FF4F54" fill-rule="evenodd" xlink:href="#path-11"></use>
                        </g>
                    </g>
                    <g id="Path">
                        <use fill="black" fill-opacity="1" filter="url(#filter-15)" xlink:href="#path-14"></use>
                        <use fill="#FF4F54" fill-rule="evenodd" xlink:href="#path-14"></use>
                    </g>
                    <g id="Path">
                        <use fill="black" fill-opacity="1" filter="url(#filter-17)" xlink:href="#path-16"></use>
                        <use fill="#FF4F54" fill-rule="evenodd" xlink:href="#path-16"></use>
                    </g>
                    <g id="Path-3" transform="translate(20.343750, 12.109375)">
                        <mask id="mask-19" fill="white">
                            <use xlink:href="#path-18"></use>
                        </mask>
                        <use id="Mask" fill="#FF4F54" xlink:href="#path-18"></use>
                    </g>
                </g>
            </g>
        </g>
    </g>
</svg>