<?xml version="1.0" encoding="UTF-8"?>
<svg width="64px" height="64px" viewBox="0 0 64 64" version="1.1" xmlns="http://www.w3.org/2000/svg" xmlns:xlink="http://www.w3.org/1999/xlink">
    <!-- Generator: Sketch 50 (54983) - http://www.bohemiancoding.com/sketch -->
    <title>icon/看研报</title>
    <desc>Created with Sketch.</desc>
    <defs>
        <linearGradient x1="85.565193%" y1="19.0957794%" x2="12.161647%" y2="84.5833442%" id="linearGradient-1">
            <stop stop-color="#499FED" offset="0%"></stop>
            <stop stop-color="#0D54ED" offset="100%"></stop>
        </linearGradient>
        <circle id="path-2" cx="32" cy="32" r="30"></circle>
        <path d="M27.3043981,42.1481481 C26.3148148,42.1481481 25.4814815,41.3075913 25.4814815,40.30943 L25.4814815,21.7646441 C25.4814815,20.7664828 26.3148148,19.9259259 27.3043981,19.9259259 L31.9918982,19.9259259 C32.9814815,19.9259259 33.8148148,20.7664828 33.8148148,21.7646441 L33.8148148,40.3619648 C33.8148148,41.3601261 33.0335648,42.1481481 31.9918982,42.1481481 L27.3043981,42.1481481 Z M30.1111111,31.7837515 C30.4814815,31.7837515 30.7283951,31.5713527 30.7283951,31.2527545 L30.7283951,23.2347007 C30.7283951,22.9161025 30.4814814,22.7037037 30.1111111,22.7037037 C29.7407407,22.7037037 29.4938272,22.9161025 29.4938272,23.2347007 L29.4938272,31.2527545 C29.4938271,31.5713527 29.7407407,31.7837515 30.1111111,31.7837515 Z M30.1111111,37.5185185 C31.1604938,37.5185185 31.962963,36.8282225 31.962963,35.9255277 C31.962963,35.0228329 31.1604938,34.3325368 30.1111111,34.3325368 C29.0617284,34.3325368 28.2592593,35.0228329 28.2592593,35.9255277 C28.2592592,36.8282225 29.0617284,37.5185185 30.1111111,37.5185185 Z M30.1111111,35.3945307 C30.4814815,35.3945307 30.7283951,35.6069295 30.7283951,35.9255277 C30.7283951,36.2441258 30.4814814,36.4565246 30.1111111,36.4565246 C29.7407407,36.4565246 29.4938272,36.2441259 29.4938272,35.9255277 C29.4938271,35.6069295 29.7407407,35.3945307 30.1111111,35.3945307 Z" id="path-4"></path>
        <filter x="-24.0%" y="-4.5%" width="148.0%" height="118.0%" filterUnits="objectBoundingBox" id="filter-5">
            <feOffset dx="0" dy="1" in="SourceAlpha" result="shadowOffsetOuter1"></feOffset>
            <feGaussianBlur stdDeviation="0.5" in="shadowOffsetOuter1" result="shadowBlurOuter1"></feGaussianBlur>
            <feColorMatrix values="0 0 0 0 0   0 0 0 0 0   0 0 0 0 0  0 0 0 0.141644022 0" type="matrix" in="shadowBlurOuter1"></feColorMatrix>
        </filter>
        <path d="M27.3043981,44 C26.3148148,44 25.4814815,43.0893967 25.4814815,42.0080553 L25.4814815,21.9178706 C25.4814815,20.8365292 26.3148148,19.9259259 27.3043981,19.9259259 L31.9918982,19.9259259 C32.9814815,19.9259259 33.8148148,20.8365292 33.8148148,21.9178706 L33.8148148,42.064968 C33.8148148,43.1463094 33.0335648,44 31.9918982,44 L27.3043981,44 Z M29.7037037,32.7719036 C30.0740741,32.7719036 30.3209877,32.7719036 30.3209877,32.7719036 L30.3209877,22.9351852 C30.3209877,22.9351852 30.0740741,22.9351852 29.7037037,22.9351852 C29.3333333,22.9351852 29.0864198,22.9351852 29.0864198,22.9351852 L29.0864198,32.7719036 C29.0864198,32.7719036 29.3333333,32.7719036 29.7037037,32.7719036 Z M30.1111111,38.9845679 C31.1604938,38.9845679 31.962963,38.2367472 31.962963,37.2588278 C31.962963,36.2809084 31.1604938,35.5330877 30.1111111,35.5330877 C29.0617284,35.5330877 28.2592593,36.2809084 28.2592593,37.2588278 C28.2592592,38.2367472 29.0617284,38.9845679 30.1111111,38.9845679 Z M30.1111111,36.6835811 C30.4814815,36.6835811 30.7283951,36.9136798 30.7283951,37.2588278 C30.7283951,37.6039758 30.4814814,37.8340745 30.1111111,37.8340745 C29.7407407,37.8340745 29.4938272,37.6039758 29.4938272,37.2588278 C29.4938271,36.9136798 29.7407407,36.6835811 30.1111111,36.6835811 Z" id="path-6"></path>
        <filter x="-24.0%" y="-4.2%" width="148.0%" height="116.6%" filterUnits="objectBoundingBox" id="filter-7">
            <feOffset dx="0" dy="1" in="SourceAlpha" result="shadowOffsetOuter1"></feOffset>
            <feGaussianBlur stdDeviation="0.5" in="shadowOffsetOuter1" result="shadowBlurOuter1"></feGaussianBlur>
            <feColorMatrix values="0 0 0 0 0   0 0 0 0 0   0 0 0 0 0  0 0 0 0.141644022 0" type="matrix" in="shadowBlurOuter1"></feColorMatrix>
        </filter>
        <path d="M40.1893765,42.1481481 C39.3677385,42.1481481 38.6008763,41.6151237 38.3269969,40.8155869 L32.9589619,22.6927545 C32.6850825,21.680008 33.2328412,20.6672615 34.2735827,20.4007493 L38.9843074,19.0681881 C40.0250489,18.8016758 41.0657904,19.3347003 41.3396697,20.3474468 L46.7077048,38.4702792 C46.9815842,39.4830257 46.4338255,40.4957723 45.393084,40.7622845 L40.6823593,42.0948457 C40.5180317,42.0948457 40.3537041,42.1481482 40.1893765,42.1481481 Z M40.2501497,32.6729946 L40.3541604,32.6729946 C40.6141872,32.6180284 40.8222086,32.2882313 40.7181979,32.0134004 L38.533973,24.043303 C38.4819677,23.7684721 38.1699356,23.5486073 37.9099088,23.6585397 C37.649882,23.7135059 37.4418606,24.043303 37.5458713,24.3181339 L39.7300961,32.2882313 C39.8341069,32.5080961 40.0421283,32.6729946 40.2501497,32.6729946 Z M41.4982782,38.4444444 C41.6542942,38.4444444 41.8103103,38.3894782 41.9663264,38.3894782 C42.7464066,38.1696135 43.2664602,37.2351883 43.0064334,36.3557293 C42.9024227,35.9159998 42.6423959,35.5862026 42.2783585,35.3663379 C41.914321,35.1464731 41.4982782,35.0915069 41.0822353,35.2014393 C40.6661925,35.3113717 40.3541604,35.5862026 40.146139,35.9709659 C39.9381176,36.3557293 39.8861122,36.7954588 39.9901229,37.2351883 C40.1981443,37.9497487 40.8222086,38.4444444 41.4982782,38.4444444 Z M41.4982782,36.2457969 C41.6022889,36.2457969 41.7062996,36.2457969 41.7062996,36.3557293 C41.8623156,36.4106954 41.914321,36.5206278 41.9663264,36.6855264 C42.0183317,36.9603573 41.8623157,37.2351883 41.6022889,37.3451206 C41.3422621,37.4000868 41.0822353,37.2351883 40.9782246,36.9603573 C40.9262193,36.7954588 40.9782246,36.6855264 41.03023,36.5206278 C41.0822353,36.3557293 41.1862461,36.3007631 41.3422621,36.2457969 L41.4982782,36.2457969 Z" id="path-8"></path>
        <filter x="-10.8%" y="-6.5%" width="121.6%" height="113.0%" filterUnits="objectBoundingBox" id="filter-9">
            <feOffset dx="0" dy="0" in="SourceAlpha" result="shadowOffsetOuter1"></feOffset>
            <feGaussianBlur stdDeviation="0.5" in="shadowOffsetOuter1" result="shadowBlurOuter1"></feGaussianBlur>
            <feColorMatrix values="0 0 0 0 0   0 0 0 0 0   0 0 0 0 0  0 0 0 0.222543025 0" type="matrix" in="shadowBlurOuter1"></feColorMatrix>
        </filter>
    </defs>
    <g id="icon/看研报" stroke="none" stroke-width="1" fill="none" fill-rule="evenodd">
        <mask id="mask-3" fill="white">
            <use xlink:href="#path-2"></use>
        </mask>
        <use id="Mask" fill="url(#linearGradient-1)" xlink:href="#path-2"></use>
        <path d="M22.5104167,42.1481481 L17.8229167,42.1481481 C16.8333333,42.1481481 16,41.3601261 16,40.30943 L16,21.7646441 C16,20.7664828 16.8333333,19.9259259 17.8229167,19.9259259 L22.5104167,19.9259259 C23.5,19.9259259 24.3333334,20.7664828 24.3333333,21.7646441 L24.3333333,40.3619648 C24.3333333,41.3601261 23.5520833,42.1481481 22.5104167,42.1481481 Z M19.7037037,31.7837515 C20.0740741,31.7837515 20.3209877,31.5713527 20.3209877,31.2527545 L20.3209877,23.2347007 C20.3209877,22.9161025 20.0740741,22.7037037 19.7037037,22.7037037 C19.3333333,22.7037037 19.0864198,22.9161025 19.0864198,23.2347007 L19.0864198,31.2527545 C19.0864198,31.5713527 19.3333333,31.7837515 19.7037037,31.7837515 Z M19.7037037,37.5185185 C20.7530864,37.5185185 21.5555555,36.8282225 21.5555556,35.9255277 C21.5555556,35.0228329 20.7530864,34.3325368 19.7037037,34.3325368 C18.654321,34.3325368 17.8518519,35.0228329 17.8518519,35.9255277 C17.8518519,36.8282225 18.654321,37.5185185 19.7037037,37.5185185 Z M19.7037037,35.3945307 C20.0740741,35.3945307 20.3209876,35.6069295 20.3209877,35.9255277 C20.3209877,36.2441258 20.0740741,36.4565246 19.7037037,36.4565246 C19.3333333,36.4565246 19.0864198,36.2441259 19.0864198,35.9255277 C19.0864198,35.6069295 19.3333333,35.3945307 19.7037037,35.3945307 Z" id="Combined-Shape" fill="#FFFFFF" fill-rule="nonzero" opacity="0.200000003" mask="url(#mask-3)"></path>
        <g id="Combined-Shape" opacity="0.200000003" mask="url(#mask-3)" fill-rule="nonzero">
            <use fill="black" fill-opacity="1" filter="url(#filter-5)" xlink:href="#path-4"></use>
            <use fill="#FFFFFF" fill-rule="evenodd" xlink:href="#path-4"></use>
        </g>
        <path d="M22.5104167,44 L17.8229167,44 C16.8333333,44 16,43.1463094 16,42.0080553 L16,21.9178706 C16,20.8365292 16.8333333,19.9259259 17.8229167,19.9259259 L22.5104167,19.9259259 C23.5,19.9259259 24.3333334,20.8365292 24.3333333,21.9178706 L24.3333333,42.064968 C24.3333333,43.1463094 23.5520833,44 22.5104167,44 Z M19.7037037,32.7719036 C20.0740741,32.7719036 20.3209877,32.7719036 20.3209877,32.7719036 L20.3209877,22.9351852 C20.3209877,22.9351852 20.0740741,22.9351852 19.7037037,22.9351852 C19.3333333,22.9351852 19.0864198,22.9351852 19.0864198,22.9351852 L19.0864198,32.7719036 C19.0864198,32.7719036 19.3333333,32.7719036 19.7037037,32.7719036 Z M19.7037037,38.9845679 C20.7530864,38.9845679 21.5555555,38.2367472 21.5555556,37.2588278 C21.5555556,36.2809084 20.7530864,35.5330877 19.7037037,35.5330877 C18.654321,35.5330877 17.8518519,36.2809084 17.8518519,37.2588278 C17.8518519,38.2367472 18.654321,38.9845679 19.7037037,38.9845679 Z M19.7037037,36.6835811 C20.0740741,36.6835811 20.3209876,36.9136798 20.3209877,37.2588278 C20.3209877,37.6039758 20.0740741,37.8340745 19.7037037,37.8340745 C19.3333333,37.8340745 19.0864198,37.6039758 19.0864198,37.2588278 C19.0864198,36.9136798 19.3333333,36.6835811 19.7037037,36.6835811 Z" id="Combined-Shape" fill="#FFFFFF" fill-rule="nonzero" mask="url(#mask-3)"></path>
        <g id="Combined-Shape" mask="url(#mask-3)" fill-rule="nonzero">
            <use fill="black" fill-opacity="1" filter="url(#filter-7)" xlink:href="#path-6"></use>
            <use fill="#FFFFFF" fill-rule="evenodd" xlink:href="#path-6"></use>
        </g>
        <g id="Combined-Shape" opacity="0.200000003" mask="url(#mask-3)" fill-rule="nonzero">
            <use fill="black" fill-opacity="1" filter="url(#filter-9)" xlink:href="#path-8"></use>
            <use fill="#FFFFFF" fill-rule="evenodd" xlink:href="#path-8"></use>
        </g>
        <path d="M40.1893765,43.0740741 C39.3677385,43.0740741 38.6008763,42.5410496 38.3269969,41.7415129 L32.9589619,23.6186805 C32.6850825,22.605934 33.2328412,21.5931874 34.2735827,21.3266752 L38.9843074,19.994114 C40.0250489,19.7276018 41.0657904,20.2606262 41.3396697,21.2733727 L46.7077048,39.3962052 C46.9815842,40.4089517 46.4338255,41.4216982 45.393084,41.6882104 L40.6823593,43.0207716 C40.5180317,43.0207716 40.3537041,43.0740741 40.1893765,43.0740741 Z M40.2501497,33.5989206 L40.3541604,33.5989206 C40.6141872,33.5439544 40.8222086,33.2141572 40.7181979,32.9393263 L38.533973,24.9692289 C38.4819677,24.694398 38.1699356,24.4745332 37.9099088,24.5844656 C37.649882,24.6394318 37.4418606,24.9692289 37.5458713,25.2440599 L39.7300961,33.2141572 C39.8341069,33.434022 40.0421283,33.5989206 40.2501497,33.5989206 Z M41.4982782,39.3703704 C41.6542942,39.3703704 41.8103103,39.3154042 41.9663264,39.3154042 C42.7464066,39.0955394 43.2664602,38.1611142 43.0064334,37.2816552 C42.9024227,36.8419257 42.6423959,36.5121285 42.2783585,36.2922638 C41.914321,36.072399 41.4982782,36.0174328 41.0822353,36.1273652 C40.6661925,36.2372976 40.3541604,36.5121285 40.146139,36.8968919 C39.9381176,37.2816552 39.8861122,37.7213847 39.9901229,38.1611142 C40.1981443,38.8756747 40.8222086,39.3703704 41.4982782,39.3703704 Z M41.4982782,37.1717228 C41.6022889,37.1717228 41.7062996,37.1717228 41.7062996,37.2816552 C41.8623156,37.3366214 41.914321,37.4465538 41.9663264,37.6114523 C42.0183317,37.8862833 41.8623157,38.1611142 41.6022889,38.2710466 C41.3422621,38.3260128 41.0822353,38.1611142 40.9782246,37.8862833 C40.9262193,37.7213847 40.9782246,37.6114523 41.03023,37.4465538 C41.0822353,37.2816552 41.1862461,37.226689 41.3422621,37.1717228 L41.4982782,37.1717228 Z" id="Combined-Shape" fill="#FFFFFF" fill-rule="nonzero" opacity="0.799999952" mask="url(#mask-3)"></path>
    </g>
</svg>