<?xml version="1.0" encoding="UTF-8"?>
<svg width="64px" height="64px" viewBox="0 0 64 64" version="1.1" xmlns="http://www.w3.org/2000/svg" xmlns:xlink="http://www.w3.org/1999/xlink">
    <!-- Generator: Sketch 51.2 (57519) - http://www.bohemiancoding.com/sketch -->
    <title>icon/创投数据</title>
    <desc>Created with Sketch.</desc>
    <defs>
        <linearGradient x1="79.8668044%" y1="11.5302939%" x2="16.1878301%" y2="95.0652408%" id="linearGradient-1">
            <stop stop-color="#9860F6" offset="0%"></stop>
            <stop stop-color="#672FE6" offset="100%"></stop>
        </linearGradient>
        <circle id="path-2" cx="32" cy="32" r="30"></circle>
    </defs>
    <g id="icon/创投数据" stroke="none" stroke-width="1" fill="none" fill-rule="evenodd">
        <mask id="mask-3" fill="white">
            <use xlink:href="#path-2"></use>
        </mask>
        <use id="Mask" fill="url(#linearGradient-1)" xlink:href="#path-2"></use>
        <path d="M43.0863787,22.4473684 L36.9468438,17.1578947 C36.8671096,17.0789474 36.627907,17 36.4684385,17 L27.8571429,17 C27.6976744,17 27.4584718,17.0789474 27.2990033,17.1578947 L21.2392027,22.368421 C21.0797342,22.5263158 21,22.7631579 21,23 L21,30.7368421 C21,30.8947369 21.0797342,31.131579 21.1594685,31.2894737 L26.3421927,37.2105263 L27.7774087,40.7631579 L26.5813954,40.7631579 L26.5813954,42.3421053 L37.744186,42.3421053 L37.744186,40.7631579 L36.5481727,40.7631579 L37.9833887,37.2105263 L43.1661129,31.2894737 C43.3255814,31.1315789 43.3255814,30.9736842 43.3255814,30.7368421 L43.3255814,23 C43.3255814,22.7631579 43.2458472,22.5263158 43.0863787,22.4473684 Z M27.3787375,43.0526316 L36.9468438,43.0526316 L36.9468438,44.6315789 L27.3787375,44.6315789 L27.3787375,43.0526316 Z M28.9734219,45.4210527 L35.3521595,45.4210527 L35.3521595,47 L28.9734219,47 L28.9734219,45.4210527 Z M30.5499621,26.5581366 L28.0421118,26.5581366 L28.0421118,31.9426483 C28.0421118,32.2818301 28.2173917,32.4655536 28.5814345,32.4655536 L30.9274879,32.4655536 C31.3319799,32.4655536 31.5881582,32.352493 31.6825396,32.1405043 C31.7904042,31.9143831 31.8713025,31.4338755 31.9252348,30.7131141 L33.1252277,31.1370914 C33.0173632,32.3666256 32.8555664,33.1156521 32.6128712,33.3700385 C32.3971421,33.5961597 31.9522009,33.7092203 31.3050138,33.7092203 L28.0286288,33.7092203 C27.1791956,33.7092203 26.7612206,33.285243 26.7612206,32.4372884 L26.7612206,25.7243146 L26.189023,26.307631 C26.189023,26.307631 25.7765963,25.9164255 25.7365076,25.8585741 C25.7212524,25.8365596 25.3311893,25.3647962 25.3250175,25.3710002 C25.1360441,25.5609599 26.1598758,24.50326 26.2758302,24.3760668 C27.2371338,23.3201532 28.1079044,22.177601 28.8780619,20.9616363 L29.8218765,20.9616363 C30.8681708,22.1063843 33.2610287,25.0409392 33.2707439,25.0537755 C33.2819096,25.0685283 32.3835383,25.8785651 32.4046459,25.8897968 C32.4257534,25.9010284 31.7388933,25.1015077 31.6124277,24.9300638 C30.7791742,23.8051107 30.06592,22.9034524 29.4578338,22.2335682 C28.7567143,23.3217766 27.9746965,24.3675873 27.0848142,25.3710002 L31.2645646,25.3710002 C31.429098,25.3710002 31.5921262,25.4679714 31.6752699,25.5703719 C31.7584137,25.6727724 31.8038872,25.7393145 31.8038872,25.9363033 L31.8038872,29.2715913 C31.7904042,30.048883 31.3859122,30.4587277 30.5769282,30.515258 C30.0510887,30.515258 29.5522152,30.5011255 29.0803079,30.4728603 L28.7701974,29.215061 C29.2690708,29.2715913 29.7005289,29.2998565 30.0780548,29.2998565 C30.3881653,29.2998565 30.5499621,29.1302655 30.5499621,28.8193489 L30.5499621,26.5581366 Z M35.0533061,23.0211956 L35.0533061,31.7409952 C35.0533061,31.7409952 34.7726054,31.7409952 34.4263435,31.7409952 C34.0800817,31.7409952 33.799381,31.7409952 33.799381,31.7409952 L33.799381,23.0226088 C33.799381,23.0226088 34.0798287,23.0211956 34.4263435,23.0211956 C34.7728583,23.0197823 35.0533061,23.0197823 35.0533061,23.0211956 Z M34.0960084,33.8081484 L33.799381,32.5220839 C34.4600512,32.5786142 35.0937553,32.6068794 35.6870102,32.6068794 C36.0106038,32.6068794 36.1724006,32.3948907 36.1724006,31.985046 L36.1724006,21.0247212 C36.1724006,21.0247212 36.1399264,21.0247212 36.4926234,21.0247212 C36.8453203,21.0247212 36.8128462,21.0247212 37.133069,21.0247212 C37.4532918,21.0247212 37.4532918,21.0247212 37.4532918,21.0247212 L37.4532918,32.3256411 C37.4532918,33.3149214 37.0083507,33.8095616 36.1319514,33.8095616 L34.0960084,33.8081484 Z" id="Shape" fill="#FFFFFF" fill-rule="nonzero" mask="url(#mask-3)"></path>
    </g>
</svg>