<?xml version="1.0" encoding="UTF-8"?>
<svg width="64px" height="64px" viewBox="0 0 64 64" version="1.1" xmlns="http://www.w3.org/2000/svg" xmlns:xlink="http://www.w3.org/1999/xlink">
    <!-- Generator: Sketch 51.2 (57519) - http://www.bohemiancoding.com/sketch -->
    <title>icon/公司研究</title>
    <desc>Created with Sketch.</desc>
    <defs>
        <linearGradient x1="85.565193%" y1="19.0957794%" x2="12.161647%" y2="84.5833442%" id="linearGradient-1">
            <stop stop-color="#499FED" offset="0%"></stop>
            <stop stop-color="#0D54ED" offset="100%"></stop>
        </linearGradient>
        <circle id="path-2" cx="32" cy="32" r="30"></circle>
    </defs>
    <g id="icon/公司研究" stroke="none" stroke-width="1" fill="none" fill-rule="evenodd">
        <mask id="mask-3" fill="white">
            <use xlink:href="#path-2"></use>
        </mask>
        <use id="Mask" fill="url(#linearGradient-1)" xlink:href="#path-2"></use>
        <g id="公司-2" mask="url(#mask-3)" fill-rule="nonzero">
            <g transform="translate(20.000000, 16.000000)" id="Shape">
                <path d="M19.9566965,29 L4.04330355,29 C3.46674106,29 3,28.6113473 3,28.131247 L3,2.72056856 C3,1.2116818 4.4551339,0 6.26718743,0 L17.7328126,0 C19.5448661,0 21,1.2116818 21,2.72056856 L21,28.131247 C21,28.4513139 20.6522322,28.7408982 19.9566965,29 Z" fill="#FFFFFF"></path>
                <path d="M11.3044643,29 L0.6955357,29 C0.311160708,29 0,28.7185619 0,28.370903 L0,9.97006689 C0,8.87742475 0.970089265,8 2.17812495,8 L9.82187505,8 C11.0299107,8 12,8.87742475 12,9.97006689 L12,28.370903 C12,28.6026756 11.7681548,28.8123746 11.3044643,29 Z" fill="#FFFFFF" opacity="0.5"></path>
                <path d="M23.4203869,29 L14.5796131,29 C14.2593006,29 14,28.7587673 14,28.460774 L14,12.6886288 C14,11.7520784 14.8084077,11 15.8151041,11 L22.1848959,11 C23.1915923,11 24,11.7520784 24,12.6886288 L24,28.460774 C24,28.6594362 23.8067956,28.8391782 23.4203869,29 Z" fill="#FFFFFF" opacity="0.5"></path>
                <path d="M10.5595774,8 L7.46548319,8 C7.21905091,8 7,7.78231293 7,7.53741497 L7,4.46258503 C7,4.21768707 7.21905091,4 7.46548319,4 L10.532196,4 C10.7786283,4 10.9976792,4.21768707 10.9976792,4.46258503 L10.9976792,7.51020408 C11.0250606,7.78231293 10.8060096,8 10.5595774,8 Z M16.5322005,8 L13.4654838,8 C13.2190512,8 13,7.78231293 13,7.53741497 L13,4.46258503 C13,4.21768707 13.2190512,4 13.4654838,4 L16.5322005,4 C16.778633,4 16.9976842,4.21768707 16.9976842,4.46258503 L16.9976842,7.51020408 C17.0250656,7.78231293 16.8060144,8 16.5322005,8 Z" fill="#649EFA"></path>
                <path d="M10.5595774,14 L7.46548319,14 C7.21905091,14 7,13.7823129 7,13.537415 L7,10.462585 C7,10.2176871 7.21905091,10 7.46548319,10 L10.532196,10 C10.7786283,10 10.9976792,10.2176871 10.9976792,10.462585 L10.9976792,13.5102041 C11.0250606,13.7823129 10.8060096,14 10.5595774,14 Z M16.5322005,14 L13.4654838,14 C13.2190512,14 13,13.7823129 13,13.537415 L13,10.462585 C13,10.2176871 13.2190512,10 13.4654838,10 L16.5322005,10 C16.778633,10 16.9976842,10.2176871 16.9976842,10.462585 L16.9976842,13.5102041 C17.0250656,13.7823129 16.8060144,14 16.5322005,14 Z" fill="#649EFA"></path>
                <path d="M10.5595774,20 L7.46548319,20 C7.21905091,20 7,19.7823129 7,19.537415 L7,16.462585 C7,16.2176871 7.21905091,16 7.46548319,16 L10.532196,16 C10.7786283,16 10.9976792,16.2176871 10.9976792,16.462585 L10.9976792,19.5102041 C11.0250606,19.7823129 10.8060096,20 10.5595774,20 Z M16.5322005,20 L13.4654838,20 C13.2190512,20 13,19.7823129 13,19.537415 L13,16.462585 C13,16.2176871 13.2190512,16 13.4654838,16 L16.5322005,16 C16.778633,16 16.9976842,16.2176871 16.9976842,16.462585 L16.9976842,19.5102041 C17.0250656,19.7823129 16.8060144,20 16.5322005,20 Z" fill="#649EFA"></path>
                <path d="M10.5595774,26 L7.46548319,26 C7.21905091,26 7,25.7823129 7,25.537415 L7,22.462585 C7,22.2176871 7.21905091,22 7.46548319,22 L10.532196,22 C10.7786283,22 10.9976792,22.2176871 10.9976792,22.462585 L10.9976792,25.5102041 C11.0250606,25.7823129 10.8060096,26 10.5595774,26 Z M16.5322005,26 L13.4654838,26 C13.2190512,26 13,25.7823129 13,25.537415 L13,22.462585 C13,22.2176871 13.2190512,22 13.4654838,22 L16.5322005,22 C16.778633,22 16.9976842,22.2176871 16.9976842,22.462585 L16.9976842,25.5102041 C17.0250656,25.7823129 16.8060144,26 16.5322005,26 Z" fill="#649EFA"></path>
                <path d="M23.3809904,32 L0.619009585,32 C0.279552716,32 0,31.5483871 0,31 C0,30.4516129 0.279552716,30 0.619009585,30 L23.3809904,30 C23.7204473,30 24,30.4516129 24,31 C24,31.5483871 23.7204473,32 23.3809904,32 Z" fill="#FFFFFF" opacity="0.600000024"></path>
            </g>
        </g>
    </g>
</svg>