<?xml version="1.0" encoding="UTF-8"?>
<svg width="56px" height="56px" viewBox="0 0 56 56" version="1.1" xmlns="http://www.w3.org/2000/svg" xmlns:xlink="http://www.w3.org/1999/xlink">
    <!-- Generator: Sketch 50 (54983) - http://www.bohemiancoding.com/sketch -->
    <title>icon/其它</title>
    <desc>Created with Sketch.</desc>
    <defs>
        <linearGradient x1="79.8668044%" y1="11.5302939%" x2="16.1878301%" y2="95.0652408%" id="linearGradient-1">
            <stop stop-color="#9860F6" offset="0%"></stop>
            <stop stop-color="#672FE6" offset="100%"></stop>
        </linearGradient>
        <circle id="path-2" cx="29" cy="29" r="27.1875"></circle>
    </defs>
    <g id="搜索卡片" stroke="none" stroke-width="1" fill="none" fill-rule="evenodd">
        <g id="综合首页-分类推荐1" transform="translate(-1327.000000, -471.000000)">
            <g id="Group-3" transform="translate(1062.000000, 46.000000)">
                <g id="icon/其它" transform="translate(264.000000, 424.000000)">
                    <mask id="mask-3" fill="white">
                        <use xlink:href="#path-2"></use>
                    </mask>
                    <use id="Mask" fill="url(#linearGradient-1)" fill-rule="evenodd" xlink:href="#path-2"></use>
                    <g id="更多" stroke-width="1" fill-rule="evenodd" mask="url(#mask-3)">
                        <g transform="translate(18.125000, 17.218750)" fill-rule="nonzero">
                            <rect id="Rectangle-path" fill="#000000" opacity="0" x="0" y="0" width="22.65625" height="22.65625"></rect>
                            <path d="M2.32371795,0 L7.55208333,0 C8.83012821,0 9.87580127,1.04567307 9.87580127,2.32371795 L9.87580127,7.55208333 C9.87580127,8.83012821 8.83012821,9.87580127 7.55208333,9.87580127 L2.32371795,9.87580127 C1.04567307,9.87580127 0,8.83012821 0,7.55208333 L0,2.32371795 C0,1.04567307 1.04567307,0 2.32371795,0 Z M2.32371795,12.7804487 L7.55208333,12.7804487 C8.83012821,12.7804487 9.87580127,13.8261218 9.87580127,15.1041667 L9.87580127,20.3325321 C9.87580127,21.6105769 8.83012821,22.65625 7.55208333,22.65625 L2.32371795,22.65625 C1.04567307,22.65625 0,21.6105769 0,20.3325321 L0,15.1041667 C0,13.8261218 1.04567307,12.7804487 2.32371795,12.7804487 Z M15.1041667,12.7804487 L20.3325321,12.7804487 C21.6105769,12.7804487 22.65625,13.8261218 22.65625,15.1041667 L22.65625,20.3325321 C22.65625,21.6105769 21.6105769,22.65625 20.3325321,22.65625 L15.1041667,22.65625 C13.8261218,22.65625 12.7804487,21.6105769 12.7804487,20.3325321 L12.7804487,15.1041667 C12.7804487,13.8261218 13.8261218,12.7804487 15.1041667,12.7804487 Z" id="Shape" fill="#FFFFFF"></path>
                            <path d="M18.7640224,0.551883018 L21.7848558,3.57271634 C22.5400641,4.32792467 22.5400641,5.51883012 21.7848558,6.27403847 L18.7640224,9.32391828 C18.0088141,10.0791266 16.8179087,10.0791266 16.0627003,9.32391828 L13.041867,6.27403847 C12.2866587,5.51883014 12.2866587,4.32792469 13.041867,3.57271634 L16.0917468,0.551883018 C16.8179087,-0.174278844 18.0378606,-0.174278844 18.7640224,0.551883018 Z" id="Shape" fill-opacity="0.675809556" fill="#FFFFFF"></path>
                        </g>
                    </g>
                </g>
            </g>
        </g>
    </g>
</svg>