<?xml version="1.0" encoding="UTF-8"?>
<svg width="64px" height="64px" viewBox="0 0 64 64" version="1.1" xmlns="http://www.w3.org/2000/svg" xmlns:xlink="http://www.w3.org/1999/xlink">
    <!-- Generator: Sketch 50 (54983) - http://www.bohemiancoding.com/sketch -->
    <title>icon/自选股</title>
    <desc>Created with Sketch.</desc>
    <defs>
        <linearGradient x1="85.565193%" y1="19.0957794%" x2="12.161647%" y2="84.5833442%" id="linearGradient-1">
            <stop stop-color="#499FED" offset="0%"></stop>
            <stop stop-color="#0D54ED" offset="100%"></stop>
        </linearGradient>
        <circle id="path-2" cx="32" cy="32" r="30"></circle>
    </defs>
    <g id="icon/自选股" stroke="none" stroke-width="1" fill="none" fill-rule="evenodd">
        <mask id="mask-3" fill="white">
            <use xlink:href="#path-2"></use>
        </mask>
        <use id="Mask" fill="url(#linearGradient-1)" xlink:href="#path-2"></use>
        <g id="Group" mask="url(#mask-3)" fill="#FFFFFF">
            <g transform="translate(16.000000, 18.000000)" id="Combined-Shape">
                <path d="M5.3883997,14.0485179 C5.17836111,13.958739 4.94742054,13.9090909 4.705,13.9090909 C3.73574026,13.9090909 2.95,14.7027679 2.95,15.6818182 C2.95,16.6608684 3.73574026,17.4545455 4.705,17.4545455 C5.67425974,17.4545455 6.46,16.6608684 6.46,15.6818182 C6.46,15.6118758 6.45598995,15.5428795 6.44818942,15.4750511 L10.7421781,11.4030509 C10.9540607,11.4947085 11.1874134,11.5454545 11.4325,11.5454545 C11.5627355,11.5454545 11.6896577,11.5311253 11.8118056,11.5039426 L17.0053153,17.6897787 C17.1192261,18.5576308 17.8546934,19.2272727 18.745,19.2272727 C19.7142597,19.2272727 20.5,18.4335957 20.5,17.4545455 C20.5,17.428156 20.4994291,17.4019013 20.4982992,17.3757931 L26.353099,12.0365952 C26.5351982,12.101218 26.7310358,12.1363636 26.935,12.1363636 C27.9042597,12.1363636 28.69,11.3426866 28.69,10.3636364 C28.69,9.38458613 27.9042597,8.59090909 26.935,8.59090909 C25.9657403,8.59090909 25.18,9.38458613 25.18,10.3636364 C25.18,10.4754335 25.1902454,10.5848136 25.2098397,10.6908708 L19.531346,15.869289 C19.2948059,15.74934 19.0277094,15.6818182 18.745,15.6818182 C18.4121224,15.6818182 18.1008904,15.7754304 17.8356985,15.9380142 L13.1068285,10.3055967 C13.1592403,10.1374067 13.1875,9.95840052 13.1875,9.77272727 C13.1875,8.79367703 12.4017597,8 11.4325,8 C10.4632403,8 9.6775,8.79367703 9.6775,9.77272727 C9.6775,9.8397086 9.6811777,9.90582229 9.68834027,9.97087353 L5.3883997,14.0485179 Z M6,0 L26,-8.8817842e-16 C29.3137085,-1.4968968e-15 32,2.6862915 32,6 L32,22 C32,25.3137085 29.3137085,28 26,28 L6,28 C2.6862915,28 -4.82366169e-16,25.3137085 -8.8817842e-16,22 L-8.8817842e-16,6 C-1.29399067e-15,2.6862915 2.6862915,-2.79460044e-16 6,-8.8817842e-16 Z"></path>
            </g>
        </g>
    </g>
</svg>