<?xml version="1.0" encoding="UTF-8"?>
<svg width="64px" height="64px" viewBox="0 0 64 64" version="1.1" xmlns="http://www.w3.org/2000/svg" xmlns:xlink="http://www.w3.org/1999/xlink">
    <!-- Generator: Sketch 50 (54983) - http://www.bohemiancoding.com/sketch -->
    <title>icon/资讯</title>
    <desc>Created with Sketch.</desc>
    <defs>
        <linearGradient x1="85.565193%" y1="19.0957794%" x2="23.9247459%" y2="70.8521834%" id="linearGradient-1">
            <stop stop-color="#FFBA80" offset="0%"></stop>
            <stop stop-color="#FF7F52" offset="100%"></stop>
        </linearGradient>
        <circle id="path-2" cx="32" cy="32" r="30"></circle>
    </defs>
    <g id="icon/资讯" stroke="none" stroke-width="1" fill="none" fill-rule="evenodd">
        <mask id="mask-3" fill="white">
            <use xlink:href="#path-2"></use>
        </mask>
        <use id="Mask" fill="url(#linearGradient-1)" xlink:href="#path-2"></use>
        <path d="M44.9918277,44 C45.136383,44.0918194 45.081686,44.1443632 44.6786933,44.1935484 C34.6142343,44.1935484 23.1622889,44.1935484 20.083833,44.1935484 C18.0315291,44.1935484 17.0035848,42.9165649 17,40.3625981 L17,23.8709677 L24,23.8709677 L24,44 L44.9918277,44 Z" id="Combined-Shape" fill="#FFFFFF" opacity="0.2703125" mask="url(#mask-3)"></path>
        <path d="M23.186459,20 L44,19.9999736 C45.1045695,19.9999736 46,20.8954041 46,21.9999736 C46,21.9999824 46,21.9999912 46,22 L45.9997337,40.2018362 C45.9029222,42.4736623 44.8965993,43.7443384 42.9807651,44.0138644 C40.1070138,44.4181534 28.755992,44.0138644 18.9032258,44.0138644 C18.9032258,44.0138644 20.9615211,43.5846514 21.186459,41.2188708 C21.186459,34.8125805 21.186459,28.4062903 21.186459,22 C21.186459,20.8954305 22.0818895,20 23.186459,20 Z M33.1708588,28.8472132 L33.1708588,36.4305388 L41.8555049,36.4305388 L41.8555049,28.8472132 L33.1708588,28.8472132 Z M25.7268764,25.0555504 L25.7268764,26.9513818 L41.7924805,26.9513818 L41.7924805,25.0555504 L25.7268764,25.0555504 Z M25.7268764,28.8472132 L25.7268764,30.1111008 L31.3098632,30.1111008 L31.3098632,28.8472132 L25.7268764,28.8472132 Z M25.7268764,32.0069322 L25.7268764,33.2708198 L31.3098632,33.2708198 L31.3098632,32.0069322 L25.7268764,32.0069322 Z M25.7268764,35.1666512 L25.7268764,36.4305388 L31.3098632,36.4305388 L31.3098632,35.1666512 L25.7268764,35.1666512 Z M25.7268764,38.3263702 L25.7268764,39.5902578 L31.3098632,39.5902578 L31.3098632,38.3263702 L25.7268764,38.3263702 Z M33.1057129,38.3263702 L33.1057129,39.5902578 L41.8283691,39.5902578 L41.8283691,38.3263702 L33.1057129,38.3263702 Z" id="Combined-Shape" fill="#FFFFFF" mask="url(#mask-3)"></path>
        <path d="M35.65625,31.3999996 L35.65625,34.3999996 C35.5937497,34.8791687 35.8541637,35.0979165 36.4375,35.0562496 L36.4375,35.3687496 L34.5,35.3687496 L34.5,35.0562496 L34.5625,35.0562496 C34.9583353,35.0770831 35.15625,34.9104181 35.15625,34.5562496 L35.15625,30.8687496 C34.9895825,30.7854159 34.7812512,30.7333331 34.53125,30.7124996 L34.53125,30.3999996 L36.15625,30.3999996 L39.4375,33.8062496 L39.4375,31.3999996 C39.5000003,30.8791637 39.2500028,30.6499993 38.6875,30.7124996 L38.59375,30.7124996 L38.59375,30.3999996 L40.65625,30.3999996 L40.65625,30.7124996 L40.5625,30.7124996 C40.0833309,30.7124996 39.8645831,30.8479149 39.90625,31.1187496 L39.90625,35.3687496 L39.46875,35.3687496 L35.65625,31.3999996 Z" id="N" fill="#FFFFFF" mask="url(#mask-3)"></path>
    </g>
</svg>