<?xml version="1.0" encoding="UTF-8"?>
<svg width="64px" height="64px" viewBox="0 0 64 64" version="1.1" xmlns="http://www.w3.org/2000/svg" xmlns:xlink="http://www.w3.org/1999/xlink">
    <!-- Generator: Sketch 51.2 (57519) - http://www.bohemiancoding.com/sketch -->
    <title>icon/经济数据</title>
    <desc>Created with Sketch.</desc>
    <defs>
        <linearGradient x1="86.1649204%" y1="8.66546044%" x2="12.8483435%" y2="100%" id="linearGradient-1">
            <stop stop-color="#FF987B" offset="0%"></stop>
            <stop stop-color="#FB3F5B" offset="37.4491641%"></stop>
            <stop stop-color="#F52566" offset="100%"></stop>
        </linearGradient>
        <circle id="path-2" cx="32" cy="32" r="30"></circle>
    </defs>
    <g id="icon/经济数据" stroke="none" stroke-width="1" fill="none" fill-rule="evenodd">
        <mask id="mask-3" fill="white">
            <use xlink:href="#path-2"></use>
        </mask>
        <use id="Mask" fill="url(#linearGradient-1)" xlink:href="#path-2"></use>
        <path d="M23.0407908,39.8532025 C23.71315,40.5453477 24.809229,41 26.0526273,41 L46.3158044,40.9864145 C48.3513219,40.9864145 50,39.7853347 50,38.2857015 L50,24.7142985 C50,23.2146654 48.3513219,22.0135855 46.3158044,22.0135855 L26.0526273,22 C24.8091886,22 23.71315,22.4546523 23.0407908,23.1467678 L15,31.4999851 L23.0407908,39.8532025 Z" id="Shape" fill="#FFFFFF" fill-rule="nonzero" mask="url(#mask-3)" transform="translate(32.500000, 31.500000) scale(-1, 1) translate(-32.500000, -31.500000) "></path>
        <path d="M23.5976562,28.7519531 L19.6777344,28.7519531 L19.6777344,30.8613281 L23.2871094,30.8613281 C23.5527357,30.8613281 23.7509759,30.9208978 23.8818359,31.0400391 C24.012696,31.1591803 24.078125,31.3164053 24.078125,31.5117188 C24.078125,31.7070322 24.0136725,31.8662103 23.8847656,31.9892578 C23.7558587,32.1123053 23.556642,32.1738281 23.2871094,32.1738281 L19.6777344,32.1738281 L19.6777344,34.6171875 L23.7324219,34.6171875 C24.0058607,34.6171875 24.2119134,34.6806634 24.3505859,34.8076172 C24.4892585,34.9345709 24.5585938,35.1035146 24.5585938,35.3144531 C24.5585938,35.5175791 24.4892585,35.6826166 24.3505859,35.8095703 C24.2119134,35.9365241 24.0058607,36 23.7324219,36 L19.0039062,36 C18.6249981,36 18.3525399,35.9160165 18.1865234,35.7480469 C18.020507,35.5800773 17.9375,35.3085956 17.9375,34.9335938 L17.9375,28.4765625 C17.9375,28.2265612 17.974609,28.0224617 18.0488281,27.8642578 C18.1230472,27.7060539 18.239257,27.5908207 18.3974609,27.5185547 C18.5556649,27.4462887 18.7578113,27.4101562 19.0039062,27.4101562 L23.5976562,27.4101562 C23.8750014,27.4101562 24.081054,27.4716791 24.2158203,27.5947266 C24.3505866,27.7177741 24.4179688,27.8789053 24.4179688,28.078125 C24.4179688,28.281251 24.3505866,28.4443353 24.2158203,28.5673828 C24.081054,28.6904303 23.8750014,28.7519531 23.5976562,28.7519531 Z M26.6779928,27.4101562 L28.9455709,27.4101562 C29.5354176,27.4101562 30.0412719,27.4648432 30.463149,27.5742188 C30.8850262,27.6835943 31.2678348,27.8886704 31.6115865,28.1894531 C32.5061223,28.955082 32.9533834,30.1191328 32.9533834,31.6816406 C32.9533834,32.1972682 32.908462,32.6679666 32.8186178,33.09375 C32.7287736,33.5195334 32.5901031,33.9033186 32.4026022,34.2451172 C32.2151012,34.5869158 31.9748693,34.8925768 31.681899,35.1621094 C31.4514291,35.3691417 31.1994785,35.5351556 30.9260397,35.6601562 C30.6526008,35.7851569 30.3586584,35.8730466 30.0442037,35.9238281 C29.729749,35.9746096 29.3752604,36 28.9807272,36 L26.713149,36 C26.3967412,36 26.1584623,35.9521489 25.9983053,35.8564453 C25.8381482,35.7607417 25.7336571,35.6259774 25.6848287,35.4521484 C25.6360004,35.2783194 25.6115865,35.0527358 25.6115865,34.7753906 L25.6115865,28.4765625 C25.6115865,28.1015606 25.6955701,27.830079 25.8635397,27.6621094 C26.0315093,27.4941398 26.3029909,27.4101562 26.6779928,27.4101562 Z M27.3518209,28.7871094 L27.3518209,34.6171875 L28.6701803,34.6171875 C28.9592442,34.6171875 29.1858045,34.6093751 29.3498678,34.59375 C29.5139311,34.5781249 29.6838513,34.5390628 29.8596334,34.4765625 C30.0354155,34.4140622 30.1877578,34.3261724 30.3166647,34.2128906 C30.8986988,33.7207007 31.1897115,32.8730529 31.1897115,31.6699219 C31.1897115,30.8222614 31.0617831,30.1875021 30.8059225,29.765625 C30.5500618,29.3437479 30.2346353,29.0751959 29.8596334,28.9599609 C29.4846315,28.844726 29.0315111,28.7871094 28.5002584,28.7871094 L27.3518209,28.7871094 Z M37.8091106,36 L35.1841106,36 C34.8052024,36 34.5346973,35.9150399 34.3725871,35.7451172 C34.210477,35.5751945 34.1294231,35.3046894 34.1294231,34.9335938 L34.1294231,28.4765625 C34.1294231,28.0976544 34.2124301,27.8251961 34.3784465,27.6591797 C34.544463,27.4931632 34.813015,27.4101562 35.1841106,27.4101562 L37.9673137,27.4101562 C38.377472,27.4101562 38.7329372,27.4355466 39.03372,27.4863281 C39.3345027,27.5371096 39.6040313,27.6347649 39.8423137,27.7792969 C40.0454397,27.9003912 40.2251254,28.05371 40.3813762,28.2392578 C40.537627,28.4248056 40.6567664,28.6298817 40.7387981,28.8544922 C40.8208297,29.0791027 40.861845,29.316405 40.861845,29.5664062 C40.861845,30.4257855 40.4321618,31.0546855 39.5727825,31.453125 C40.7016944,31.8125018 41.2661418,32.5117136 41.2661418,33.5507812 C41.2661418,34.0312524 41.1430962,34.4638653 40.8970012,34.8486328 C40.6509062,35.2334004 40.3188783,35.5175772 39.9009075,35.7011719 C39.6391874,35.8105474 39.3384092,35.8876951 38.9985637,35.9326172 C38.6587183,35.9775393 38.2622378,36 37.8091106,36 Z M37.6802043,32.1855469 L35.8696575,32.1855469 L35.8696575,34.6933594 L37.7387981,34.6933594 C38.9145852,34.6933594 39.50247,34.2695355 39.50247,33.421875 C39.50247,32.9882791 39.3501277,32.6738291 39.0454387,32.4785156 C38.7407497,32.2832021 38.2856761,32.1855469 37.6802043,32.1855469 Z M35.8696575,28.7167969 L35.8696575,30.9375 L37.4634075,30.9375 C37.8970034,30.9375 38.231961,30.8964848 38.4682903,30.8144531 C38.7046196,30.7324215 38.8852818,30.576173 39.0102825,30.3457031 C39.1079392,30.1816398 39.1567668,29.9980479 39.1567668,29.7949219 C39.1567668,29.361326 39.0024715,29.0732429 38.6938762,28.9306641 C38.3852809,28.7880852 37.9145825,28.7167969 37.2817668,28.7167969 L35.8696575,28.7167969 Z" id="EDB" fill="#FF4F54" mask="url(#mask-3)"></path>
    </g>
</svg>