<?xml version="1.0" encoding="UTF-8"?>
<svg width="168px" height="18px" viewBox="0 0 168 18" version="1.1" xmlns="http://www.w3.org/2000/svg" xmlns:xlink="http://www.w3.org/1999/xlink">
    <!-- Generator: Sketch 50 (54983) - http://www.bohemiancoding.com/sketch -->
    <title>Group 7</title>
    <desc>Created with Sketch.</desc>
    <defs></defs>
    <g id="Symbols" stroke="none" stroke-width="1" fill="none" fill-rule="evenodd">
        <g id="site/search" transform="translate(-99.000000, -29.000000)">
            <g id="Group-7" transform="translate(99.000000, 25.000000)">
                <g id="Group-4" transform="translate(0.000000, 4.000000)">
                    <g id="Group-3" transform="translate(26.000000, 0.000000)" fill="#FFFFFF">
                        <g id="Group-2">
                            <g id="Group" fill-rule="nonzero">
                                <path d="M2.27492711,17.6785714 C1.80655977,17.6785714 1.47201166,17.6785714 1.20437318,17.6785714 C0.936734694,17.6785714 0.535276968,17.6785714 0.133819242,17.6785714 L0.133819242,0.578571429 L2.27492711,0.578571429 L11.9099125,13.8857143 L12.1106414,13.8857143 L12.1106414,0.578571429 L14.3186589,0.578571429 L14.3186589,17.6785714 L12.177551,17.6785714 L2.5425656,4.43571429 L2.34183673,4.43571429 L2.34183673,17.6785714 L2.27492711,17.6785714 Z" id="Shape"></path>
                                <path d="M31.0460641,17.6785714 C30.711516,16.7142857 30.3769679,15.8785714 30.1762391,15.2357143 C29.9086006,14.5928571 29.6409621,13.7571429 29.306414,12.7928571 L22.2139942,12.7928571 L20.4074344,17.6785714 L18.0655977,17.6785714 L24.6227405,0.578571429 L26.830758,0.578571429 L33.3879009,17.6785714 L31.0460641,17.6785714 Z M25.6263848,3.34285714 C25.2249271,4.37142857 24.890379,5.27142857 24.6227405,6.04285714 C24.355102,6.81428571 24.0874636,7.58571429 23.8198251,8.29285714 C23.5521866,9.06428571 23.2176385,9.96428571 22.8161808,10.9928571 L28.5704082,10.9928571 L25.7602041,3.34285714 L25.6263848,3.34285714 Z" id="Shape"></path>
                                <path d="M47.9741983,15.75 C47.9741983,16.1357143 47.9741983,16.4571429 47.9741983,16.7142857 C47.9741983,16.9714286 47.9741983,17.2928571 47.9741983,17.6785714 L37.2017493,17.6785714 L37.2017493,0.578571429 L39.4097668,0.578571429 L39.4097668,15.75 L47.9741983,15.75 Z" id="Shape"></path>
                                <path d="M57.2746356,17.6785714 C56.8062682,17.6785714 56.4717201,17.6785714 56.137172,17.6785714 C55.8026239,17.6785714 55.4680758,17.6785714 54.9997085,17.6785714 L54.9997085,10.2857143 L48.7102041,0.578571429 L51.2527697,0.578571429 L56.0702624,8.16428571 L56.2709913,8.16428571 L61.088484,0.578571429 L63.6310496,0.578571429 L57.3415452,10.2857143 L57.3415452,17.6785714 L57.2746356,17.6785714 Z" id="Shape"></path>
                                <path d="M65.9059767,13.1785714 C66.374344,13.1785714 66.7088921,13.1785714 67.0434402,13.1785714 C67.3110787,13.1785714 67.7125364,13.1785714 68.1809038,13.1785714 C68.314723,14.0785714 68.7830904,14.7857143 69.6529155,15.3 C70.4558309,15.8142857 71.5263848,16.0714286 72.7976676,16.0714286 C74.0020408,16.0714286 75.0056851,15.8142857 75.741691,15.2357143 C76.5446064,14.6571429 76.9460641,13.95 76.9460641,13.1142857 C76.9460641,12.4071429 76.6784257,11.7642857 76.0762391,11.3142857 C75.4740525,10.8642857 74.6042274,10.4142857 73.3998542,10.1571429 L71.1249271,9.57857143 C69.5190962,9.19285714 68.314723,8.61428571 67.6456268,7.90714286 C66.9765306,7.2 66.5750729,6.23571429 66.5750729,5.01428571 C66.5750729,3.53571429 67.1772595,2.37857143 68.314723,1.47857143 C69.4521866,0.578571429 70.9911079,0.128571429 72.8645773,0.128571429 C74.6042274,0.128571429 76.0093294,0.578571429 77.146793,1.47857143 C78.2842566,2.37857143 78.9533528,3.47142857 79.0202624,4.88571429 L76.8122449,4.88571429 C76.6784257,3.98571429 76.2100583,3.34285714 75.5409621,2.82857143 C74.8049563,2.31428571 73.9351312,2.05714286 72.7976676,2.05714286 C71.5932945,2.05714286 70.6565598,2.31428571 69.9205539,2.82857143 C69.1845481,3.34285714 68.85,4.05 68.85,4.88571429 C68.85,5.52857143 69.1176385,6.10714286 69.6529155,6.49285714 C70.1881924,6.87857143 71.0580175,7.26428571 72.2623907,7.58571429 L74.1358601,8.03571429 C76.0093294,8.48571429 77.2806122,9.06428571 78.0835277,9.83571429 C78.8864431,10.6071429 79.2879009,11.5714286 79.2879009,12.8571429 C79.2879009,14.4 78.6857143,15.6857143 77.4813411,16.5857143 C76.2769679,17.4857143 74.671137,18 72.6638484,18 C70.790379,18 69.2514577,17.55 68.0470845,16.65 C66.6419825,15.8142857 65.9728863,14.6571429 65.9059767,13.1785714 Z" id="Shape"></path>
                                <path d="M90.3279883,17.6785714 C89.859621,17.6785714 89.5250729,17.6785714 89.1905248,17.6785714 C88.9228863,17.6785714 88.5214286,17.6785714 88.0530612,17.6785714 L88.0530612,2.50714286 L82.2988338,2.50714286 L82.2988338,0.578571429 L95.9483965,0.578571429 L95.9483965,2.50714286 L90.3279883,2.50714286 L90.3279883,17.6785714 Z" id="Shape"></path>
                            </g>
                            <rect id="Rectangle-3" x="99.0262391" y="15.4285714" width="2.67638484" height="2.57142857"></rect>
                        </g>
                    </g>
                    <g id="logo-copy-2">
                        <g id="Group">
                            <polygon id="Rectangle-Copy" fill="#016DFF" opacity="0.817651721" points="13.3367242 0 8.69825073 0 16.7726052 18 21.4110787 18"></polygon>
                            <polygon id="Rectangle" fill="#01ACFF" opacity="0.816915761" points="8.55426329 0 13.376959 0 5.48682667 18 0.664130985 18"></polygon>
                            <polygon id="Rectangle-2" fill="#1472FB" opacity="0.651551178" points="8.97669471 13.5 19.4037901 13.5 21.4110787 18 7.0255102 18"></polygon>
                        </g>
                    </g>
                </g>
                <text id="数据" font-family="PingFangSC-Semibold, PingFang SC" font-size="19" font-weight="500" fill="#FFFFFF">
                    <tspan x="130" y="20">数据</tspan>
                </text>
            </g>
        </g>
    </g>
</svg>